<?xml version="1.0" encoding="UTF-8"?>
<svg width="512" height="512" viewBox="0 0 512 512" xmlns="http://www.w3.org/2000/svg">
  <defs>
    <!-- Holographic gradient -->
    <linearGradient id="holographicGradient" x1="0%" y1="0%" x2="100%" y2="100%">
      <stop offset="0%" style="stop-color:#00FFFF;stop-opacity:1" />
      <stop offset="25%" style="stop-color:#FF00FF;stop-opacity:1" />
      <stop offset="50%" style="stop-color:#FFFF00;stop-opacity:1" />
      <stop offset="75%" style="stop-color:#00FF00;stop-opacity:1" />
      <stop offset="100%" style="stop-color:#0080FF;stop-opacity:1" />
    </linearGradient>
    
    <!-- Glow effect -->
    <filter id="glow">
      <feGaussianBlur stdDeviation="3" result="coloredBlur"/>
      <feMerge> 
        <feMergeNode in="coloredBlur"/>
        <feMergeNode in="SourceGraphic"/>
      </feMerge>
    </filter>
    
    <!-- Shimmer effect -->
    <linearGradient id="shimmer" x1="0%" y1="0%" x2="100%" y2="0%">
      <stop offset="0%" style="stop-color:rgba(255,255,255,0);stop-opacity:0" />
      <stop offset="50%" style="stop-color:rgba(255,255,255,0.8);stop-opacity:0.8" />
      <stop offset="100%" style="stop-color:rgba(255,255,255,0);stop-opacity:0" />
    </linearGradient>
  </defs>
  
  <!-- Background circle with holographic gradient -->
  <circle cx="256" cy="256" r="240" fill="url(#holographicGradient)" filter="url(#glow)" opacity="0.9"/>
  
  <!-- Inner circle for depth -->
  <circle cx="256" cy="256" r="200" fill="none" stroke="rgba(255,255,255,0.3)" stroke-width="2"/>
  
  <!-- AI Brain/Neural Network Pattern -->
  <g fill="rgba(255,255,255,0.8)">
    <!-- Central node -->
    <circle cx="256" cy="256" r="20" fill="url(#holographicGradient)"/>
    
    <!-- Neural network nodes -->
    <circle cx="180" cy="180" r="12"/>
    <circle cx="332" cy="180" r="12"/>
    <circle cx="180" cy="332" r="12"/>
    <circle cx="332" cy="332" r="12"/>
    <circle cx="256" cy="140" r="10"/>
    <circle cx="256" cy="372" r="10"/>
    <circle cx="140" cy="256" r="10"/>
    <circle cx="372" cy="256" r="10"/>
    
    <!-- Connection lines -->
    <line x1="256" y1="256" x2="180" y2="180" stroke="rgba(255,255,255,0.6)" stroke-width="2"/>
    <line x1="256" y1="256" x2="332" y2="180" stroke="rgba(255,255,255,0.6)" stroke-width="2"/>
    <line x1="256" y1="256" x2="180" y2="332" stroke="rgba(255,255,255,0.6)" stroke-width="2"/>
    <line x1="256" y1="256" x2="332" y2="332" stroke="rgba(255,255,255,0.6)" stroke-width="2"/>
    <line x1="256" y1="256" x2="256" y2="140" stroke="rgba(255,255,255,0.6)" stroke-width="2"/>
    <line x1="256" y1="256" x2="256" y2="372" stroke="rgba(255,255,255,0.6)" stroke-width="2"/>
    <line x1="256" y1="256" x2="140" y2="256" stroke="rgba(255,255,255,0.6)" stroke-width="2"/>
    <line x1="256" y1="256" x2="372" y2="256" stroke="rgba(255,255,255,0.6)" stroke-width="2"/>
  </g>
  
  <!-- Shimmer overlay -->
  <rect x="0" y="0" width="512" height="512" fill="url(#shimmer)" opacity="0.3"/>
  
  <!-- Outer ring with holographic effect -->
  <circle cx="256" cy="256" r="240" fill="none" stroke="url(#holographicGradient)" stroke-width="4" opacity="0.7"/>
  
  <!-- Corner highlights -->
  <circle cx="100" cy="100" r="30" fill="rgba(255,255,255,0.2)"/>
  <circle cx="412" cy="100" r="30" fill="rgba(255,255,255,0.2)"/>
  <circle cx="100" cy="412" r="30" fill="rgba(255,255,255,0.2)"/>
  <circle cx="412" cy="412" r="30" fill="rgba(255,255,255,0.2)"/>
</svg>
